<svg xmlns="http://www.w3.org/2000/svg" viewBox="0 0 512 512" width="512" height="512">
  <title>dot.scope</title>
  <path transform="matrix(0.810853950518755, 0, 0, 0.810853950518755, -34.285714285714285, 402.1564245810056)" d="M74.75-150.50L103.75-150.50C117.50-32.75 210.75 60.75 328.50 74.50L328.50 103C328.50 119.75 341.50 133 358.25 133C375 133 388 119.75 388 103L388 74.50C505.75 60.75 599.25-32.75 612.75-150.50L641-150.50C658-150.50 671.25-163.50 671.25-180.25C671.25-197 658-210 641-210L612.75-210C599-327.50 505.50-420.75 388-434.50L388-463.25C388-480 375-493.50 358.25-493.50C341.50-493.50 328.50-480 328.50-463.25L328.50-434.50C211-420.75 117.75-327.50 104-210L74.75-210C58-210 44.75-197 44.75-180.25C44.75-163.50 58-150.50 74.75-150.50ZM358.25-271C375-271 388-284.25 388-301L388-351.75C460.25-339.25 517.50-282.25 530-210L478.75-210C462-210 448.75-197 448.75-180.25C448.75-163.50 462-150.50 478.75-150.50L530.25-150.50C517.75-78 460.50-20.75 388-8.25L388-59.25C388-76.25 375-89.50 358.25-89.50C341.50-89.50 328.50-76.25 328.50-59.25L328.50-8.25C256-20.75 198.75-78 186.50-150.50L237.25-150.50C254-150.50 267.25-163.50 267.25-180.25C267.25-197 254-210 237.25-210L186.50-210C199-282.25 256.25-339.25 328.50-351.75L328.50-301C328.50-284.25 341.50-271 358.25-271ZM358-132.50C384.25-132.50 405.75-154 405.75-180.25C405.75-206.50 384.25-228 358-228C331.75-228 310.25-206.50 310.25-180.25C310.25-154 331.75-132.50 358-132.50Z" fill="currentColor"/>
</svg>