<svg xmlns="http://www.w3.org/2000/svg" viewBox="0 0 512 512" width="512" height="512">
  <title>square.dashed</title>
  <path transform="matrix(1.0247100353000504, 0, 0, 1.0247100353000504, -63.32526475037821, 440.5758951084216)" d="M63.75-290.75L152.50-290.75L152.50-316.50C152.50-333 160-339.25 175.25-339.25L201-339.25L201-428L161.75-428C100-428 63.75-392 63.75-330ZM248-339.25L375.25-339.25L375.25-428L248-428ZM470.75-290.75L559.50-290.75L559.50-330C559.50-392 523.25-428 461.50-428L422.25-428L422.25-339.25L448-339.25C463.25-339.25 470.75-333 470.75-316.50ZM470.75-116.75L559.50-116.75L559.50-243.75L470.75-243.75ZM63.75-116.75L152.50-116.75L152.50-243.75L63.75-243.75ZM422.25 67.75L461.50 67.75C523.25 67.75 559.50 31.50 559.50-30.25L559.50-69.75L470.75-69.75L470.75-44C470.75-27.50 463.25-21 448-21L422.25-21ZM161.75 67.75L201 67.75L201-21L175.25-21C160-21 152.50-27.50 152.50-44L152.50-69.75L63.75-69.75L63.75-30.25C63.75 31.50 100 67.75 161.75 67.75ZM248 67.75L375.25 67.75L375.25-21L248-21Z" fill="currentColor"/>
</svg>