<?xml version="1.0" encoding="UTF-8"?>
<!--Generator: Apple Native CoreSVG 341-->
<!DOCTYPE svg
PUBLIC "-//W3C//DTD SVG 1.1//EN"
       "http://www.w3.org/Graphics/SVG/1.1/DTD/svg11.dtd">
<svg version="1.1" xmlns="http://www.w3.org/2000/svg" xmlns:xlink="http://www.w3.org/1999/xlink" viewBox="0 0 739.746 573.975">
 <g>
  <path d="M739.746 94.2383L739.746 479.98C739.746 541.992 707.764 573.975 644.531 573.975L94.9707 573.975C31.9824 573.975 0 542.48 0 479.98L0 94.2383C0 31.7383 31.9824 0 94.9707 0L644.531 0C707.764 0 739.746 31.9824 739.746 94.2383ZM280.762 256.104C270.508 256.104 262.695 264.16 262.695 274.414C262.695 284.668 270.508 292.725 280.762 292.725L403.564 292.725C414.062 292.725 422.119 284.668 422.119 274.414C422.119 264.16 414.062 256.104 403.564 256.104ZM129.15 142.822L209.961 191.65L129.15 240.723C106.689 253.906 125.488 287.842 149.902 272.461L243.652 213.623C260.01 203.613 259.033 179.443 243.652 169.434L149.902 110.84C125.488 95.459 106.201 128.906 129.15 142.822Z" fill="black" fill-opacity="0.85"/>
 </g>
</svg>
