<svg width="768" height="768" viewBox="0.00 94.01 768.00 579.98" xmlns="http://www.w3.org/2000/svg">
  <path d="M81.28,673.99 Q47.51,673.99 23.76,650.23 Q0.00,626.46 0.00,592.68 L0.00,175.02 Q0.00,141.23 23.76,117.62 Q47.51,94.01 81.28,94.01 L686.72,94.01 Q720.49,94.01 744.24,117.77 Q768.00,141.54 768.00,175.32 L768.00,592.98 Q768.00,626.77 744.24,650.38 Q720.49,673.99 686.72,673.99 Z M81.28,592.71 L686.72,592.71 Q686.72,592.71 686.72,592.71 Q686.72,592.71 686.72,592.71 L686.72,245.80 L81.28,245.80 L81.28,592.71 Q81.28,592.71 81.28,592.71 Q81.28,592.71 81.28,592.71 Z M237.11,419.25 L182.27,364.41 Q171.50,353.64 171.50,339.44 Q171.50,325.24 182.27,314.00 Q193.04,303.70 207.24,303.70 Q221.44,303.70 232.21,314.47 L308.53,390.79 Q320.94,402.85 320.94,419.08 Q320.94,435.31 308.53,447.71 L232.21,524.04 Q221.44,534.81 207.73,534.32 Q194.02,533.83 183.25,523.06 Q172.48,512.29 172.48,498.09 Q172.48,483.89 183.25,473.11 Z M419.25,548.52 Q404.27,548.52 394.14,538.44 Q384.00,528.37 384.00,513.47 Q384.00,498.58 394.14,488.29 Q404.27,478.01 419.25,478.01 L583.77,478.01 Q598.75,478.01 608.89,488.09 Q619.03,498.16 619.03,513.06 Q619.03,527.95 608.89,538.24 Q598.75,548.52 583.77,548.52 Z " fill="currentColor"/>
</svg>
