<?xml version="1.0" encoding="UTF-8"?>
<!--Generator: Apple Native CoreSVG 341-->
<!DOCTYPE svg
PUBLIC "-//W3C//DTD SVG 1.1//EN"
       "http://www.w3.org/Graphics/SVG/1.1/DTD/svg11.dtd">
<svg version="1.1" xmlns="http://www.w3.org/2000/svg" xmlns:xlink="http://www.w3.org/1999/xlink" viewBox="0 0 635.986 636.475">
 <g>
  <path d="M317.871 43.9453C246.094 43.9453 181.152 102.539 181.152 180.908C181.152 241.943 233.887 294.678 317.871 318.115C402.1 341.797 455.322 395.02 455.322 455.078C455.322 530.518 394.287 592.041 317.871 592.041C469.482 592.041 592.041 469.482 592.041 318.115C592.041 166.504 469.482 43.9453 317.871 43.9453ZM317.871 635.986C493.408 635.986 635.986 493.652 635.986 318.115C635.986 142.578 493.408 0 317.871 0C142.334 0 0 142.578 0 318.115C0 493.652 142.334 635.986 317.871 635.986ZM317.871 590.576C167.236 590.576 45.4102 468.75 45.4102 318.115C45.4102 167.48 167.236 45.6543 317.871 45.6543C468.506 45.6543 590.332 167.48 590.332 318.115C590.332 468.75 468.506 590.576 317.871 590.576Z" fill="black" fill-opacity="0.85"/>
 </g>
</svg>
