<?xml version="1.0" encoding="UTF-8"?>
<!--Generator: Apple Native CoreSVG 341-->
<!DOCTYPE svg
PUBLIC "-//W3C//DTD SVG 1.1//EN"
       "http://www.w3.org/Graphics/SVG/1.1/DTD/svg11.dtd">
<svg version="1.1" xmlns="http://www.w3.org/2000/svg" xmlns:xlink="http://www.w3.org/1999/xlink" viewBox="0 0 254.395 254.59">
 <g>
  <path d="M254.395 127.344C254.395 197.461 197.266 254.59 127.148 254.59C57.1289 254.59 0 197.461 0 127.344C0 57.3242 57.1289 0.195312 127.148 0.195312C197.266 0.195312 254.395 57.3242 254.395 127.344ZM59.7656 171.777C53.8086 177.148 53.3203 183.594 58.3008 188.77L66.1133 196.387C71.4844 201.758 78.0273 201.27 83.2031 195.312L161.816 106.641C161.328 106.25 160.938 105.957 160.742 105.664L149.902 94.9219C149.609 94.6289 149.219 94.2383 148.828 93.75ZM124.219 57.6172C121.777 60.2539 122.168 62.8906 123.73 64.7461C124.707 66.0156 126.953 66.8945 128.711 66.1133C138.965 61.2305 149.414 60.1562 158.301 64.5508L152.539 78.8086C150.684 83.3008 151.758 86.3281 154.492 89.2578L167.09 101.758C169.336 104.004 171.289 104.492 174.805 103.809L183.301 102.148L187.988 106.641L187.402 112.305C187.207 115.039 187.402 116.406 189.648 118.75L193.75 122.754C195.898 124.609 198.242 125 200.391 122.754L217.09 106.055C219.043 104.102 218.945 101.66 216.895 99.5117L212.793 95.6055C210.449 93.2617 209.18 92.9688 206.445 93.1641L200.879 93.5547L196.289 89.0625L198.047 81.7383C199.023 77.9297 197.656 74.3164 193.945 70.5078L180.566 57.4219C166.699 43.5547 136.523 44.2383 124.219 57.6172Z" fill="black" fill-opacity="0.85"/>
 </g>
</svg>
