<svg width="768" height="768" viewBox="0.00 0.00 768.00 768.00" xmlns="http://www.w3.org/2000/svg">
  <path d="M29.22,494.61 Q16.70,494.61 8.35,486.78 Q0.00,478.96 0.00,466.43 Q0.00,453.91 8.35,445.57 Q16.70,437.22 29.22,437.22 Q41.74,437.22 49.57,445.57 Q57.39,453.91 57.39,466.43 Q57.39,478.96 49.57,486.78 Q41.74,494.61 29.22,494.61 Z M29.22,330.78 Q16.70,330.78 8.35,322.43 Q0.00,314.09 0.00,301.57 Q0.00,289.04 8.35,281.22 Q16.70,273.39 29.22,273.39 Q41.74,273.39 49.57,281.22 Q57.39,289.04 57.39,301.57 Q57.39,314.09 49.57,322.43 Q41.74,330.78 29.22,330.78 Z M137.74,679.30 Q116.87,679.30 102.78,665.22 Q88.70,651.13 88.70,630.26 Q88.70,609.39 102.78,594.78 Q116.87,580.17 137.74,580.17 Q158.61,580.17 173.22,594.78 Q187.83,609.39 187.83,630.26 Q187.83,651.13 173.22,665.22 Q158.61,679.30 137.74,679.30 Z M137.74,515.48 Q116.87,515.48 102.78,501.39 Q88.70,487.30 88.70,466.43 Q88.70,445.57 102.78,430.96 Q116.87,416.35 137.74,416.35 Q158.61,416.35 173.22,430.96 Q187.83,445.57 187.83,466.43 Q187.83,487.30 173.22,501.39 Q158.61,515.48 137.74,515.48 Z M137.74,351.65 Q116.87,351.65 102.78,337.04 Q88.70,322.43 88.70,301.57 Q88.70,280.70 102.78,266.61 Q116.87,252.52 137.74,252.52 Q158.61,252.52 173.22,266.61 Q187.83,280.70 187.83,301.57 Q187.83,322.43 173.22,337.04 Q158.61,351.65 137.74,351.65 Z M137.74,187.83 Q116.87,187.83 102.78,173.22 Q88.70,158.61 88.70,137.74 Q88.70,116.87 102.78,102.78 Q116.87,88.70 137.74,88.70 Q158.61,88.70 173.22,102.78 Q187.83,116.87 187.83,137.74 Q187.83,158.61 173.22,173.22 Q158.61,187.83 137.74,187.83 Z M301.63,529.04 Q274.43,529.04 256.70,511.06 Q238.96,493.08 238.96,466.19 Q238.96,439.30 256.94,421.04 Q274.92,402.78 301.81,402.78 Q328.70,402.78 346.96,420.98 Q365.22,439.17 365.22,466.37 Q365.22,493.57 347.02,511.30 Q328.83,529.04 301.63,529.04 Z M301.63,365.22 Q274.43,365.22 256.70,347.02 Q238.96,328.83 238.96,301.63 Q238.96,274.43 256.94,256.70 Q274.92,238.96 301.81,238.96 Q328.70,238.96 346.96,256.94 Q365.22,274.92 365.22,301.81 Q365.22,328.70 347.02,346.96 Q328.83,365.22 301.63,365.22 Z M301.57,679.30 Q280.70,679.30 266.61,665.22 Q252.52,651.13 252.52,630.26 Q252.52,609.39 266.61,594.78 Q280.70,580.17 301.57,580.17 Q322.43,580.17 337.04,594.78 Q351.65,609.39 351.65,630.26 Q351.65,651.13 337.04,665.22 Q322.43,679.30 301.57,679.30 Z M301.57,187.83 Q280.70,187.83 266.61,173.22 Q252.52,158.61 252.52,137.74 Q252.52,116.87 266.61,102.78 Q280.70,88.70 301.57,88.70 Q322.43,88.70 337.04,102.78 Q351.65,116.87 351.65,137.74 Q351.65,158.61 337.04,173.22 Q322.43,187.83 301.57,187.83 Z M301.57,768.00 Q289.04,768.00 281.22,759.65 Q273.39,751.30 273.39,738.78 Q273.39,726.26 281.22,718.43 Q289.04,710.61 301.57,710.61 Q314.09,710.61 322.43,718.43 Q330.78,726.26 330.78,738.78 Q330.78,751.30 322.43,759.65 Q314.09,768.00 301.57,768.00 Z M301.57,57.39 Q289.04,57.39 281.22,49.57 Q273.39,41.74 273.39,29.22 Q273.39,16.70 281.22,8.35 Q289.04,0.00 301.57,0.00 Q314.09,0.00 322.43,8.35 Q330.78,16.70 330.78,29.22 Q330.78,41.74 322.43,49.57 Q314.09,57.39 301.57,57.39 Z M466.19,529.04 Q439.30,529.04 421.04,511.06 Q402.78,493.08 402.78,466.19 Q402.78,439.30 420.98,421.04 Q439.17,402.78 466.37,402.78 Q493.57,402.78 511.30,420.98 Q529.04,439.17 529.04,466.37 Q529.04,493.57 511.06,511.30 Q493.08,529.04 466.19,529.04 Z M466.19,365.22 Q439.30,365.22 421.04,347.02 Q402.78,328.83 402.78,301.63 Q402.78,274.43 420.98,256.70 Q439.17,238.96 466.37,238.96 Q493.57,238.96 511.30,256.94 Q529.04,274.92 529.04,301.81 Q529.04,328.70 511.06,346.96 Q493.08,365.22 466.19,365.22 Z M466.43,679.30 Q445.57,679.30 430.96,665.22 Q416.35,651.13 416.35,630.26 Q416.35,609.39 430.96,594.78 Q445.57,580.17 466.43,580.17 Q487.30,580.17 501.39,594.78 Q515.48,609.39 515.48,630.26 Q515.48,651.13 501.39,665.22 Q487.30,679.30 466.43,679.30 Z M466.43,187.83 Q445.57,187.83 430.96,173.22 Q416.35,158.61 416.35,137.74 Q416.35,116.87 430.96,102.78 Q445.57,88.70 466.43,88.70 Q487.30,88.70 501.39,102.78 Q515.48,116.87 515.48,137.74 Q515.48,158.61 501.39,173.22 Q487.30,187.83 466.43,187.83 Z M466.43,768.00 Q453.91,768.00 445.57,759.65 Q437.22,751.30 437.22,738.78 Q437.22,726.26 445.57,718.43 Q453.91,710.61 466.43,710.61 Q478.96,710.61 486.78,718.43 Q494.61,726.26 494.61,738.78 Q494.61,751.30 486.78,759.65 Q478.96,768.00 466.43,768.00 Z M466.43,57.39 Q453.91,57.39 445.57,49.57 Q437.22,41.74 437.22,29.22 Q437.22,16.70 445.57,8.35 Q453.91,0.00 466.43,0.00 Q478.96,0.00 486.78,8.35 Q494.61,16.70 494.61,29.22 Q494.61,41.74 486.78,49.57 Q478.96,57.39 466.43,57.39 Z M630.26,679.30 Q609.39,679.30 594.78,665.22 Q580.17,651.13 580.17,630.26 Q580.17,609.39 594.78,594.78 Q609.39,580.17 630.26,580.17 Q651.13,580.17 665.22,594.78 Q679.30,609.39 679.30,630.26 Q679.30,651.13 665.22,665.22 Q651.13,679.30 630.26,679.30 Z M630.26,515.48 Q609.39,515.48 594.78,501.39 Q580.17,487.30 580.17,466.43 Q580.17,445.57 594.78,430.96 Q609.39,416.35 630.26,416.35 Q651.13,416.35 665.22,430.96 Q679.30,445.57 679.30,466.43 Q679.30,487.30 665.22,501.39 Q651.13,515.48 630.26,515.48 Z M630.26,351.65 Q609.39,351.65 594.78,337.04 Q580.17,322.43 580.17,301.57 Q580.17,280.70 594.78,266.61 Q609.39,252.52 630.26,252.52 Q651.13,252.52 665.22,266.61 Q679.30,280.70 679.30,301.57 Q679.30,322.43 665.22,337.04 Q651.13,351.65 630.26,351.65 Z M630.26,187.83 Q609.39,187.83 594.78,173.22 Q580.17,158.61 580.17,137.74 Q580.17,116.87 594.78,102.78 Q609.39,88.70 630.26,88.70 Q651.13,88.70 665.22,102.78 Q679.30,116.87 679.30,137.74 Q679.30,158.61 665.22,173.22 Q651.13,187.83 630.26,187.83 Z M738.78,494.61 Q726.26,494.61 718.43,486.78 Q710.61,478.96 710.61,466.43 Q710.61,453.91 718.43,445.57 Q726.26,437.22 738.78,437.22 Q751.30,437.22 759.65,445.57 Q768.00,453.91 768.00,466.43 Q768.00,478.96 759.65,486.78 Q751.30,494.61 738.78,494.61 Z M738.78,330.78 Q726.26,330.78 718.43,322.43 Q710.61,314.09 710.61,301.57 Q710.61,289.04 718.43,281.22 Q726.26,273.39 738.78,273.39 Q751.30,273.39 759.65,281.22 Q768.00,289.04 768.00,301.57 Q768.00,314.09 759.65,322.43 Q751.30,330.78 738.78,330.78 Z " fill="currentColor"/>
</svg>
