<svg width="768" height="768" viewBox="0.00 14.60 768.00 738.80" xmlns="http://www.w3.org/2000/svg">
  <path d="M202.90,753.40 Q156.96,753.40 125.20,721.23 Q93.44,689.06 93.44,643.12 Q93.44,597.17 125.38,565.41 Q157.32,533.66 202.95,533.66 Q213.17,533.66 225.58,535.85 Q237.99,538.04 246.75,541.69 L273.76,505.19 Q255.51,484.02 245.29,455.91 Q235.07,427.80 240.18,400.06 L201.49,384.00 Q189.08,405.90 164.06,419.41 Q139.05,432.91 110.24,432.91 Q64.30,432.91 32.15,400.97 Q0.00,369.03 0.00,323.41 Q0.00,276.74 31.80,244.96 Q63.60,213.17 110.28,213.17 Q156.96,213.17 188.35,244.96 Q219.74,276.74 219.74,323.41 Q219.74,325.05 219.74,326.33 Q219.74,327.60 219.74,329.25 L256.97,345.31 Q271.57,316.84 298.22,296.76 Q324.87,276.68 355.53,270.84 L355.53,231.42 Q324.87,224.85 299.32,196.02 Q273.76,167.18 273.76,124.84 Q273.76,78.90 305.93,46.75 Q338.10,14.60 384.05,14.60 Q429.99,14.60 462.11,46.75 Q494.24,78.90 494.24,124.84 Q494.24,167.18 469.05,196.02 Q443.86,224.85 412.47,231.42 L412.47,270.84 Q443.86,276.68 470.14,296.76 Q496.43,316.84 511.03,346.04 L548.26,329.25 Q548.26,327.60 548.26,326.33 Q548.26,325.05 548.26,323.41 Q548.26,277.47 580.20,245.32 Q612.14,213.17 657.76,213.17 Q703.70,213.17 735.85,245.34 Q768.00,277.51 768.00,323.45 Q768.00,369.40 735.85,401.16 Q703.70,432.91 657.76,432.91 Q629.00,432.91 603.96,419.41 Q578.92,405.90 565.78,383.27 L527.09,400.06 Q530.74,429.26 521.98,456.27 Q513.22,483.29 494.24,505.19 L521.98,543.15 Q530.74,538.77 542.78,536.21 Q554.83,533.66 565.05,533.66 Q610.68,533.66 642.62,565.41 Q674.56,597.17 674.56,643.12 Q674.56,689.06 642.80,721.23 Q611.04,753.40 565.10,753.40 Q519.15,753.40 486.98,721.25 Q454.81,689.10 454.81,643.16 Q454.81,624.76 461.02,607.68 Q467.22,590.60 476.71,577.46 L450.43,541.69 Q420.50,558.48 384.00,558.48 Q347.50,558.48 317.57,541.69 L291.29,577.46 Q300.78,590.60 306.98,607.68 Q313.19,624.76 313.19,643.16 Q313.19,689.10 281.02,721.25 Q248.85,753.40 202.90,753.40 Z M110.24,358.45 Q124.84,358.45 135.06,348.23 Q145.28,338.01 145.28,323.41 Q145.28,308.81 135.06,298.59 Q124.84,288.37 110.24,288.37 Q95.63,288.37 85.41,298.59 Q75.19,308.81 75.19,323.41 Q75.19,338.01 85.41,348.23 Q95.63,358.45 110.24,358.45 Z M202.95,678.21 Q217.55,678.21 227.77,667.98 Q237.99,657.76 237.99,643.16 Q237.99,628.56 227.77,618.34 Q217.55,608.12 202.95,608.12 Q188.35,608.12 178.13,618.34 Q167.91,628.56 167.91,643.16 Q167.91,657.76 178.13,667.98 Q188.35,678.21 202.95,678.21 Z M384.00,159.88 Q398.60,159.88 408.82,149.66 Q419.04,139.44 419.04,124.84 Q419.04,110.24 408.82,100.02 Q398.60,89.79 384.00,89.79 Q369.40,89.79 359.18,100.02 Q348.96,110.24 348.96,124.84 Q348.96,139.44 359.18,149.66 Q369.40,159.88 384.00,159.88 Z M383.87,471.60 Q408.09,471.60 425.25,454.57 Q442.40,437.54 442.40,413.33 Q442.40,389.11 425.37,371.95 Q408.34,354.80 384.13,354.80 Q359.91,354.80 342.75,371.83 Q325.60,388.86 325.60,413.08 Q325.60,437.29 342.63,454.45 Q359.66,471.60 383.87,471.60 Z M565.05,678.21 Q579.65,678.21 589.87,667.98 Q600.09,657.76 600.09,643.16 Q600.09,628.56 589.87,618.34 Q579.65,608.12 565.05,608.12 Q550.45,608.12 540.23,618.34 Q530.01,628.56 530.01,643.16 Q530.01,657.76 540.23,667.98 Q550.45,678.21 565.05,678.21 Z M657.76,358.45 Q672.37,358.45 682.59,348.23 Q692.81,338.01 692.81,323.41 Q692.81,308.81 682.59,298.59 Q672.37,288.37 657.76,288.37 Q643.16,288.37 632.94,298.59 Q622.72,308.81 622.72,323.41 Q622.72,338.01 632.94,348.23 Q643.16,358.45 657.76,358.45 Z M384.00,124.84 Q384.00,124.84 384.00,124.84 Q384.00,124.84 384.00,124.84 Q384.00,124.84 384.00,124.84 Q384.00,124.84 384.00,124.84 Q384.00,124.84 384.00,124.84 Q384.00,124.84 384.00,124.84 Q384.00,124.84 384.00,124.84 Q384.00,124.84 384.00,124.84 Z M110.24,323.41 Q110.24,323.41 110.24,323.41 Q110.24,323.41 110.24,323.41 Q110.24,323.41 110.24,323.41 Q110.24,323.41 110.24,323.41 Q110.24,323.41 110.24,323.41 Q110.24,323.41 110.24,323.41 Q110.24,323.41 110.24,323.41 Q110.24,323.41 110.24,323.41 Z M384.00,413.20 Q384.00,413.20 384.00,413.20 Q384.00,413.20 384.00,413.20 Q384.00,413.20 384.00,413.20 Q384.00,413.20 384.00,413.20 Q384.00,413.20 384.00,413.20 Q384.00,413.20 384.00,413.20 Q384.00,413.20 384.00,413.20 Q384.00,413.20 384.00,413.20 Z M657.76,323.41 Q657.76,323.41 657.76,323.41 Q657.76,323.41 657.76,323.41 Q657.76,323.41 657.76,323.41 Q657.76,323.41 657.76,323.41 Q657.76,323.41 657.76,323.41 Q657.76,323.41 657.76,323.41 Q657.76,323.41 657.76,323.41 Q657.76,323.41 657.76,323.41 Z M202.95,643.16 Q202.95,643.16 202.95,643.16 Q202.95,643.16 202.95,643.16 Q202.95,643.16 202.95,643.16 Q202.95,643.16 202.95,643.16 Q202.95,643.16 202.95,643.16 Q202.95,643.16 202.95,643.16 Q202.95,643.16 202.95,643.16 Q202.95,643.16 202.95,643.16 Z M565.05,643.16 Q565.05,643.16 565.05,643.16 Q565.05,643.16 565.05,643.16 Q565.05,643.16 565.05,643.16 Q565.05,643.16 565.05,643.16 Q565.05,643.16 565.05,643.16 Q565.05,643.16 565.05,643.16 Q565.05,643.16 565.05,643.16 Q565.05,643.16 565.05,643.16 Z " fill="currentColor"/>
</svg>
