<?xml version="1.0" encoding="UTF-8"?>
<!--Generator: Apple Native CoreSVG 341-->
<!DOCTYPE svg
PUBLIC "-//W3C//DTD SVG 1.1//EN"
       "http://www.w3.org/Graphics/SVG/1.1/DTD/svg11.dtd">
<svg version="1.1" xmlns="http://www.w3.org/2000/svg" xmlns:xlink="http://www.w3.org/1999/xlink" viewBox="0 0 738.553 752.821">
 <g>
  <path d="M589.247 550.849L618.788 555.244C629.042 556.708 638.075 563.056 644.423 572.089L711.073 670.234C717.177 679.023 717.909 688.3 711.317 694.892L658.339 747.626C651.747 754.218 642.958 754.706 633.437 748.115L535.536 680.976C526.503 674.628 520.155 665.595 518.69 655.341L514.052 625.8L373.058 485.258C380.497 475.8 388.636 465.85 397.562 455.37L552.138 610.175L558.729 646.064L642.226 709.296L672.743 679.023L609.511 595.039L573.622 589.179L416.94 432.957C424.94 423.877 433.495 414.432 442.725 404.556ZM201.308 67.4506L401.677 267.82C401.831 268.261 402.032 268.686 402.235 269.111C393.096 278.199 384.213 286.872 375.668 295.007L172.987 92.1088C150.038 69.1596 123.427 69.1596 99.9892 92.5971L56.5322 136.787C33.0947 160.712 32.6064 186.347 55.5556 209.54L249.567 403.343C238.567 411.556 228.187 418.922 218.405 425.534L30.8974 237.617C-10.3623 196.601-9.87404 150.458 31.1416 109.443L72.8896 67.6948C113.905 26.6791 160.048 26.1909 201.308 67.4506ZM115.858 176.581L235.243 295.966C239.882 300.361 239.638 306.953 235.487 311.103C231.337 315.497 224.257 315.742 219.862 311.347L100.233 192.206C95.8389 188.056 96.3271 180.976 100.233 176.581C104.628 172.187 112.196 172.675 115.858 176.581ZM155.165 137.275L274.794 256.415C278.944 260.566 278.944 267.402 274.55 272.285C270.888 276.191 263.319 276.679 259.169 272.285L140.028 152.412C135.878 148.261 135.634 141.669 140.028 137.275C143.935 133.124 150.77 132.88 155.165 137.275Z" fill="black" fill-opacity="0.85"/>
  <path d="M46.5224 711.982C99.7451 764.716 171.278 765.205 223.769 712.47C291.395 644.355 274.794 571.601 489.394 356.025C555.312 387.519 635.634 377.021 688.856 323.798C744.032 268.867 754.042 182.685 714.979 113.105L631.972 196.113C622.206 205.878 610.731 206.122 600.478 196.113L562.636 158.027C552.626 147.773 551.894 136.054 561.659 126.289L644.911 43.5248C575.575 4.2182 489.882 14.228 434.706 69.6479C381.239 122.871 370.741 203.193 402.235 269.111C186.659 483.466 113.905 466.865 45.79 534.247C-6.94435 586.982-6.45607 658.515 46.5224 711.982ZM463.759 294.501C407.606 238.105 405.897 148.749 460.097 94.7944C492.323 62.812 537.978 50.3608 580.702 58.6616L532.851 106.269C510.145 129.218 510.634 157.05 534.071 179.999L578.261 224.189C601.454 247.138 629.286 247.382 651.503 225.41L699.843 176.826C708.144 220.283 695.692 265.937 663.222 298.408C609.022 352.363 520.399 350.41 463.759 294.501ZM73.3779 684.882C36.2685 647.04 36.5127 598.456 72.6455 562.324C144.667 490.546 192.274 522.773 420.79 299.384C425.917 306.464 431.776 313.3 438.124 319.892C444.716 326.24 451.552 332.343 459.12 337.47C235.487 565.986 267.714 613.593 195.937 685.615C159.804 721.747 110.976 722.236 73.3779 684.882ZM133.925 663.154C154.921 663.154 171.767 646.308 171.767 625.312C171.767 604.316 154.921 587.47 133.925 587.47C112.929 587.47 96.083 604.316 96.083 625.312C96.083 646.308 112.929 663.154 133.925 663.154Z" fill="black" fill-opacity="0.85"/>
 </g>
</svg>
